<?xml version="1.0" standalone="no"?>
<!DOCTYPE svg PUBLIC "-//W3C//DTD SVG 20010904//EN"
 "http://www.w3.org/TR/2001/REC-SVG-20010904/DTD/svg10.dtd">
<svg version="1.0" xmlns="http://www.w3.org/2000/svg"
 width="267.000000pt" height="50.000000pt" viewBox="0 0 267.000000 50.000000"
 preserveAspectRatio="xMidYMid meet">

<g transform="translate(0.000000,50.000000) scale(0.100000,-0.100000)"
fill="#cc3399" stroke="none">
<path d="M2280 470 c-11 -11 -20 -27 -20 -35 0 -11 -18 -15 -79 -17 l-80 -3
49 -65 49 -65 1 -121 c0 -96 -3 -124 -15 -134 -27 -22 -16 -30 40 -30 58 0 68
7 35 28 -18 11 -20 23 -20 135 1 120 1 123 30 161 20 26 39 40 57 42 15 2 33
11 40 20 15 21 17 38 3 29 -6 -3 -14 5 -20 19 -12 32 -34 33 -54 4 -9 -12 -19
-18 -23 -14 -5 5 -3 11 4 13 7 2 9 11 6 19 -3 8 1 14 11 14 9 0 16 5 16 10 0
15 -8 12 -30 -10z m60 -41 c0 -5 -7 -9 -15 -9 -15 0 -20 12 -9 23 8 8 24 -1
24 -14z m-14 -30 c4 -8 9 -7 15 2 4 7 11 10 15 6 4 -4 -1 -14 -12 -22 -24 -18
-38 -19 -31 -1 4 11 -13 14 -85 15 l-91 2 36 -48 c19 -26 39 -49 45 -51 6 -2
25 17 43 42 18 25 34 44 37 41 2 -2 -12 -26 -32 -53 l-36 -50 0 -122 c0 -105
3 -125 18 -136 15 -12 13 -13 -20 -14 -38 0 -51 13 -23 24 12 4 15 27 15 121
l0 117 -43 56 c-24 31 -47 63 -51 70 -10 16 189 18 200 1z"/>
<path d="M2337 479 c7 -7 15 -10 18 -7 3 3 -2 9 -12 12 -14 6 -15 5 -6 -5z"/>
<path d="M2365 450 c-3 -5 -1 -10 4 -10 6 0 11 5 11 10 0 6 -2 10 -4 10 -3 0
-8 -4 -11 -10z"/>
<path d="M70 276 c0 -9 12 -16 31 -18 67 -7 63 -68 -5 -79 -37 -6 -61 -19 -35
-19 11 0 11 -2 -1 -10 -12 -8 -9 -10 12 -10 22 0 35 -10 60 -50 24 -36 40 -50
56 -50 25 0 25 0 -19 65 l-27 41 24 21 c29 26 31 62 3 97 -16 20 -29 26 -60
26 -27 0 -39 -4 -39 -14z"/>
<path d="M290 165 l0 -125 80 0 c64 0 80 3 80 15 0 12 -13 15 -60 15 l-60 0 0
40 0 40 45 0 c33 0 45 4 45 15 0 11 -12 15 -45 15 l-45 0 0 40 0 40 60 0 c47
0 60 3 60 15 0 12 -16 15 -80 15 l-80 0 0 -125z"/>
<path d="M530 165 l0 -125 80 0 c64 0 80 3 80 15 0 12 -13 15 -60 15 l-60 0 0
40 0 40 45 0 c33 0 45 4 45 15 0 11 -12 15 -45 15 l-45 0 0 40 0 40 60 0 c47
0 60 3 60 15 0 12 -16 15 -80 15 l-80 0 0 -125z"/>
<path d="M770 165 l0 -125 86 0 c64 0 85 3 82 13 -3 7 -29 14 -64 17 l-59 5
-3 108 c-2 99 -4 107 -22 107 -19 0 -20 -7 -20 -125z"/>
<path d="M1050 285 c0 -13 -29 -192 -36 -228 -5 -22 -2 -27 14 -27 17 0 22 12
34 77 l13 78 44 -79 44 -78 40 76 c25 46 44 71 48 64 4 -6 11 -38 14 -71 6
-53 24 -81 41 -64 7 7 -27 239 -36 250 -4 4 -28 -33 -55 -83 -26 -49 -51 -90
-54 -90 -4 0 -22 31 -40 68 -34 70 -70 125 -71 107z"/>
<path d="M1441 166 c-33 -70 -61 -130 -61 -132 0 -14 41 0 50 16 9 17 21 20
75 20 55 0 65 -3 70 -20 4 -11 15 -20 26 -20 26 0 23 9 -46 154 l-52 111 -62
-129z m87 -11 l22 -45 -46 0 c-25 0 -44 3 -42 8 2 4 10 24 18 45 8 20 17 37
20 37 3 0 16 -20 28 -45z"/>
<path d="M1699 175 c-1 -63 -2 -121 -3 -127 -1 -7 8 -13 19 -13 17 0 20 7 20
50 0 70 22 71 68 0 25 -36 44 -55 57 -55 27 0 25 7 -14 63 l-34 48 24 24 c31
31 31 69 -1 100 -20 21 -34 25 -80 25 l-55 0 -1 -115z m102 75 c41 -23 16 -70
-38 -70 -31 0 -33 2 -33 33 0 19 3 37 7 40 10 10 42 8 64 -3z"/>
<path d="M1920 276 c0 -10 14 -16 43 -18 l42 -3 1 -110 c1 -99 3 -110 19 -110
16 0 18 11 19 110 l1 110 43 3 c28 2 42 8 42 18 0 11 -20 14 -105 14 -85 0
-105 -3 -105 -14z"/>
<path d="M2329 178 c-1 -65 -2 -124 -3 -130 -1 -7 8 -13 19 -13 18 0 19 6 17
85 l-2 85 85 -90 85 -90 0 133 c0 125 -1 132 -20 132 -18 0 -20 -7 -20 -82 l0
-83 -80 85 -79 85 -2 -117z"/>
<path d="M2620 160 c0 -123 1 -130 20 -130 19 0 20 7 20 130 0 123 -1 130 -20
130 -19 0 -20 -7 -20 -130z"/>
<path d="M13 123 c9 -2 25 -2 35 0 9 3 1 5 -18 5 -19 0 -27 -2 -17 -5z"/>
<path d="M0 65 c0 -14 5 -25 10 -25 6 0 10 11 10 25 0 14 -4 25 -10 25 -5 0
-10 -11 -10 -25z"/>
</g>
</svg>
