<svg id="left_arrow" xmlns="http://www.w3.org/2000/svg" width="38.099" height="27.699" viewBox="0 0 38.099 27.699">
  <path id="Path_92031" data-name="Path 92031" d="M-512.231,179.5H-482.1a1.733,1.733,0,0,0,1.927-1.51,1.715,1.715,0,0,0-1.5-1.923c-.188-.018-.378-.015-.567-.015h-30.016c.046-.2.186-.275.286-.374q4.343-4.349,8.689-8.694a1.715,1.715,0,0,0-.6-2.94,1.687,1.687,0,0,0-1.818.466q-1.261,1.263-2.524,2.524l-9.351,9.352a1.758,1.758,0,0,0,.009,2.79q5.909,5.91,11.816,11.82a1.772,1.772,0,0,0,1.786.593,1.713,1.713,0,0,0,.841-2.854c-.631-.669-1.3-1.3-1.946-1.955q-3.457-3.457-6.915-6.911a2.483,2.483,0,0,0-.328-.237Z" transform="translate(518.258 -163.948)" fill="#fff"/>
</svg>
