<svg xmlns="http://www.w3.org/2000/svg" xmlns:xlink="http://www.w3.org/1999/xlink" width="266" height="49.508" viewBox="0 0 266 49.508">
  <defs>
    <linearGradient id="linear-gradient" x1="0.5" x2="0.5" y2="1" gradientUnits="objectBoundingBox">
      <stop offset="0" stop-color="#ee4ff8"/>
      <stop offset="1" stop-color="#af2cd1"/>
    </linearGradient>
  </defs>
  <g id="final_logo" transform="translate(-77 -595.5)">
    <path id="Subtraction_27" data-name="Subtraction 27" d="M6.756,26.224H0V0H10.54A10.014,10.014,0,0,1,14.96.9a7.825,7.825,0,0,1,2.9,2.341,7.807,7.807,0,0,1,1.4,3.184,7.684,7.684,0,0,1-.094,3.409,7.944,7.944,0,0,1-1.611,3.09A7.465,7.465,0,0,1,14.436,15.1l7.6,11.126H16.683L9.6,15.771H6.756V26.223Zm-1.207-2v1.292H6.2V24.221ZM2,22.283v3.229H4.9V22.283ZM.705,24.221v1.292h.646V24.221Zm4.844-1.938v1.292H6.2V22.283Zm-4.844,0v1.292h.646V22.283ZM5.549,19.7v1.292H6.2V19.7ZM2,17.762v3.229H4.9V17.762ZM.705,19.7v1.292h.646V19.7Zm4.844-1.938v1.292H6.2V17.762Zm-4.844,0v1.292h.646V17.762ZM5.549,15.5v1.292H6.2V15.5ZM2,13.564v3.229H4.9V13.564ZM.705,15.5v1.292h.646V15.5Zm4.844-1.938v1.292H6.2V13.564Zm-4.844,0v1.292h.646V13.564ZM5.549,11.3v1.292H6.2V11.3ZM2,9.365v3.229H4.9V9.365ZM.705,11.3v1.292h.646V11.3Zm6.051-7.07v7.3H10.54a4.776,4.776,0,0,0,2.379-.543,3.735,3.735,0,0,0,1.424-1.349,3.456,3.456,0,0,0,.468-1.76,3.354,3.354,0,0,0-.487-1.761A3.922,3.922,0,0,0,12.9,4.776a4.67,4.67,0,0,0-2.36-.543ZM5.549,9.365v1.292H6.2V9.365Zm-4.844,0v1.292h.646V9.365ZM5.549,7.1V8.4H6.2V7.1ZM2,5.167V8.4H4.9V5.167ZM.705,7.1V8.4h.646V7.1ZM5.549,5.167V6.459H6.2V5.167Zm-4.844,0V6.459h.646V5.167ZM5.549,2.907V4.2H6.2V2.907ZM2,.969V4.2H4.9V.969ZM.705,2.907V4.2h.646V2.907ZM5.549.969V2.261H6.2V.969ZM.705.969V2.261h.646V.969Z" transform="translate(77 615.622)" fill="url(#linear-gradient)"/>
    <path id="Path_4189" data-name="Path 4189" d="M25.786-81.2V-77H13.311v6.818h9.778v4.2H13.311v6.818H25.786v4.2H8.816V-81.2Zm24.163,0V-77H37.474v6.818h9.778v4.2H37.474v6.818H49.949v4.2H32.979V-81.2Zm7.193,0h4.5v22.028H74.112v4.2H57.142Z" transform="translate(96.603 696.758)" fill="url(#linear-gradient)"/>
    <path id="Path_4188" data-name="Path 4188" d="M11.59-81.985h1.5l9.927,18.843,9.927-18.843h1.5l3.933,26.223H33.954L31.632-70.747,23.765-55.762h-1.5l-7.9-14.985L12.077-55.762H7.656ZM44.444-55.762l12.213-26.6h.749l12.175,26.6H64.935l-1.686-3.671H50.812l-1.686,3.671ZM61.3-63.629,57.031-72.92l-4.308,9.291Zm14.723,7.867V-81.985H84.3a9.967,9.967,0,0,1,4.42.9,7.791,7.791,0,0,1,2.9,2.341,7.772,7.772,0,0,1,1.4,3.184,7.65,7.65,0,0,1-.094,3.409,7.911,7.911,0,0,1-1.611,3.091A7.429,7.429,0,0,1,88.2-66.888l7.6,11.126H90.447l-7.08-10.452H80.519v10.452Zm4.5-21.99v7.305H84.3a4.755,4.755,0,0,0,2.379-.543,3.719,3.719,0,0,0,1.424-1.349,3.441,3.441,0,0,0,.468-1.761,3.34,3.34,0,0,0-.487-1.761,3.906,3.906,0,0,0-1.424-1.349,4.649,4.649,0,0,0-2.36-.543ZM98.5-77.79v-4.2h21.578v4.2H111.5v22.028H107V-77.79Zm41.995-4.2,15.359,16.521V-81.985h4.5v26.223h-1.5l-15.4-16.558v16.558h-4.5V-81.985Zm27.8,0h4.5v26.223h-4.5Z" transform="translate(170.212 697.866)" fill="url(#linear-gradient)"/>
    <g id="glass" transform="translate(287.425 596)">
      <path id="Subtraction_41" data-name="Subtraction 41" d="M6.592,13.185a6.552,6.552,0,0,1-2.564-.517l1.395-1.8a4.444,4.444,0,0,0,2.344,0c0-.016,0-.033,0-.053a1.18,1.18,0,0,0-.052-.346,4.049,4.049,0,0,1-2.027.057l.034-.044A4,4,0,0,0,7.7,10.422a1.169,1.169,0,0,0-.218-.374,3.589,3.589,0,0,1-1.472.065l.031-.04a3.54,3.54,0,0,0,1.407-.062A1.187,1.187,0,0,0,6.96,9.7a3.15,3.15,0,0,1-.368.022c-.089,0-.18,0-.268-.011l.028-.037c.077.006.158.009.24.009s.176,0,.267-.011a1.177,1.177,0,0,0-.5-.007L7.813,7.788h-.5a1.4,1.4,0,1,0-1.448,0H.108A6.654,6.654,0,0,1,0,6.592,6.593,6.593,0,0,1,11.254,1.931,6.592,6.592,0,0,1,6.592,13.185ZM5.423,10.928h0a1.175,1.175,0,0,0,2.34,0,4.5,4.5,0,0,1-2.34,0Zm5.062-2.1a4.525,4.525,0,0,1-1.655,1.655,1.175,1.175,0,0,0,1.924-.907A1.175,1.175,0,0,0,10.484,8.829Zm-.356-.291h0a4.06,4.06,0,0,1-1.59,1.589,1.182,1.182,0,0,0,.208.282l.038.036a4.461,4.461,0,0,0,1.661-1.66l-.036-.038a1.174,1.174,0,0,0-.281-.209Zm-.465-.133A3.6,3.6,0,0,1,8.407,9.663a1.18,1.18,0,0,0,.109.419,4.006,4.006,0,0,0,1.566-1.567,1.154,1.154,0,0,0-.418-.109h0Zm-.086,0a1.176,1.176,0,0,0-.529.125,3.187,3.187,0,0,1-.519.519,1.182,1.182,0,0,0-.126.53c0,.012,0,.024,0,.036A3.558,3.558,0,0,0,9.614,8.4Zm-.624.179a1.185,1.185,0,0,0-.37.37A3.155,3.155,0,0,0,8.954,8.581Zm1.861-3.165a1.172,1.172,0,0,0-.344.051,4.048,4.048,0,0,1,0,2.248,1.173,1.173,0,0,0,.344.051h.054a4.444,4.444,0,0,0,0-2.348Zm-8.445,0H2.316a4.449,4.449,0,0,0,0,2.348H2.37a1.165,1.165,0,0,0,.345-.052,4.046,4.046,0,0,1,0-2.247A1.162,1.162,0,0,0,2.37,5.416Zm8.557.005a4.5,4.5,0,0,1,0,2.34,1.175,1.175,0,0,0,0-2.34Zm-8.671,0h0a1.186,1.186,0,0,0-1.063,1.17,1.171,1.171,0,0,0,1.062,1.17,4.509,4.509,0,0,1,0-2.34Zm8.164.063a1.168,1.168,0,0,0-.373.217,3.574,3.574,0,0,1,0,1.78,1.176,1.176,0,0,0,.373.217,4,4,0,0,0,0-2.215Zm-7.657,0a3.993,3.993,0,0,0,0,2.215,1.163,1.163,0,0,0,.373-.217,3.588,3.588,0,0,1,0-1.781A1.169,1.169,0,0,0,2.763,5.484Zm7.247.251A1.178,1.178,0,0,0,9.7,6.22a3.153,3.153,0,0,1,0,.744,1.178,1.178,0,0,0,.311.484,3.536,3.536,0,0,0,0-1.713Zm-6.836,0h0a3.533,3.533,0,0,0,0,1.712,1.177,1.177,0,0,0,.312-.489,3.181,3.181,0,0,1,0-.734,1.182,1.182,0,0,0-.312-.489Zm6.495.589h0a1.179,1.179,0,0,0,0,.534c.007-.083.011-.173.011-.267s0-.181-.011-.267Zm-6.154,0h0c-.007.085-.011.174-.011.265s0,.18.011.266a1.185,1.185,0,0,0,0-.531ZM8.4,3.572c0,.011,0,.023,0,.035a1.165,1.165,0,0,0,.126.53,3.147,3.147,0,0,1,.52.519,1.181,1.181,0,0,0,.53.126h.036A3.561,3.561,0,0,0,8.4,3.572Zm-3.622,0h0a3.56,3.56,0,0,0-1.21,1.209h.035a1.162,1.162,0,0,0,.532-.126,3.166,3.166,0,0,1,.517-.517,1.182,1.182,0,0,0,.126-.53c0-.012,0-.024,0-.036ZM8.515,3.1a1.162,1.162,0,0,0-.109.418A3.6,3.6,0,0,1,9.664,4.778a1.157,1.157,0,0,0,.418-.109A4,4,0,0,0,8.515,3.1Zm-3.846,0A4,4,0,0,0,3.1,4.669a1.154,1.154,0,0,0,.418.11A3.6,3.6,0,0,1,4.778,3.52,1.173,1.173,0,0,0,4.669,3.1Zm4.115-.363-.038.036a1.162,1.162,0,0,0-.208.282,4.054,4.054,0,0,1,1.59,1.589,1.19,1.19,0,0,0,.281-.208l.036-.038A4.461,4.461,0,0,0,8.784,2.739Zm-4.384,0A4.461,4.461,0,0,0,2.739,4.4l.036.038a1.164,1.164,0,0,0,.282.208A4.053,4.053,0,0,1,4.646,3.057a1.172,1.172,0,0,0-.208-.282ZM4.6,4.23a3.117,3.117,0,0,0-.372.372,1.2,1.2,0,0,0,.207-.165A1.159,1.159,0,0,0,4.6,4.23Zm3.978,0h0a1.2,1.2,0,0,0,.166.207,1.187,1.187,0,0,0,.206.165A3.153,3.153,0,0,0,8.581,4.23Zm1-1.8a1.159,1.159,0,0,0-.748.27,4.523,4.523,0,0,1,1.655,1.655A1.176,1.176,0,0,0,9.578,2.43Zm-5.972,0A1.177,1.177,0,0,0,2.432,3.607a1.179,1.179,0,0,0,.268.748A4.525,4.525,0,0,1,4.355,2.7,1.162,1.162,0,0,0,3.606,2.43ZM6.592,3.5c-.089,0-.179,0-.269.012a1.185,1.185,0,0,0,.539,0C6.775,3.507,6.684,3.5,6.592,3.5Zm0-.038a3.133,3.133,0,0,1,.368.022,1.185,1.185,0,0,0,.488-.311,3.54,3.54,0,0,0-1.71,0,1.187,1.187,0,0,0,.488.311A3.129,3.129,0,0,1,6.592,3.465Zm0-.44a3.58,3.58,0,0,1,.89.112A1.166,1.166,0,0,0,7.7,2.764a4,4,0,0,0-2.215,0,1.176,1.176,0,0,0,.217.373A3.56,3.56,0,0,1,6.592,3.025Zm0-.468a4.03,4.03,0,0,1,1.124.159,1.181,1.181,0,0,0,.052-.346c0-.018,0-.035,0-.053a4.449,4.449,0,0,0-2.348,0c0,.017,0,.034,0,.053a1.167,1.167,0,0,0,.052.346A4.023,4.023,0,0,1,6.592,2.556Zm0-.454a4.491,4.491,0,0,1,1.17.155,1.175,1.175,0,0,0-2.34,0A4.491,4.491,0,0,1,6.592,2.1Z" transform="translate(15.158 0)" stroke="rgba(0,0,0,0)" stroke-miterlimit="10" stroke-width="1" fill="url(#linear-gradient)"/>
      <g id="Group_175858" data-name="Group 175858" transform="translate(0 7.835)">
        <path id="Path_89880" data-name="Path 89880" d="M2154,4677h22.724l-10.127,13.966v23.367l4.648,3.34h-11.039l4.5-3.34v-23.367Z" transform="translate(-2154 -4677)" fill="none" stroke="#af2cd1" stroke-width="1"/>
        <g id="Group_175837" data-name="Group 175837" transform="translate(9.31 12.045)">
          <path id="Subtraction_39" data-name="Subtraction 39" d="M.1,26.224H0V0H.139L1.357,1.921V25.288L.1,26.224Zm4.4-.037h0l-1.25-.9V1.921L4.363,0H4.5Z" fill="url(#linear-gradient)"/>
        </g>
        <path id="Path_89882" data-name="Path 89882" d="M2154,4677h22.724l-10.127,13.966v23.367l4.648,3.34h-11.039l4.5-3.34v-23.367Z" transform="translate(-2154 -4677)" fill="none" stroke="#af2cd1" stroke-width="1"/>
        <path id="Path_89881" data-name="Path 89881" d="M2172,4714h17.641l-8.53,11.351Z" transform="translate(-2169.358 -4712.535)" fill="url(#linear-gradient)"/>
      </g>
    </g>
  </g>
</svg>
